# xmcd
#
# Track frame offsets: 
#        150
#        12857
#        24284
#        38545
#        54934
#        67283
#        78730
#        90155
#
# Disc length: 1414 seconds
#
# Revision: 0
# Processed by: cddbd v1.5.2PL0 Copyright (c) Steve Scherf et al.
# Submitted via: ExactAudioCopy v0.99pb4
#
DISCID=53058408
DTITLE=Various Artist - Truckers Jukebox #1
DYEAR=1995
DGENRE=Classic Country
TTITLE0=Conway Twitty - Tight Fittin' Jeans
TTITLE1=Merle Haggard - Red Bandana
TTITLE2=Lee Greenwood - God Bless the U.S.A.
TTITLE3=Rose in Paradise - Waylon Jennings
TTITLE4=Brenda Lee - All Alone Am I
TTITLE5=John Anderson - If It Ain't Broke, Don't Fix It
TTITLE6=Patsy Cline - Sweet Dreams
TTITLE7=George Jones - You Couldn't Get the Picture
EXTD=
EXTT0=
EXTT1=
EXTT2=
EXTT3=
EXTT4=
EXTT5=
EXTT6=
EXTT7=
PLAYORDER=
